<svg xmlns="http://www.w3.org/2000/svg" viewBox="0 0 64 64"><g data-name="Layer 23"><path fill="#c7e2fc" d="M55 56H21v2a4 4 0 0 1-4 4 4 4 0 0 1-4-4V6a4 4 0 0 0-4-4h40a6 6 0 0 1 6 6Z"/><path fill="#dbedfd" d="M48 11.5A38.117 38.117 0 0 0 46.8 2H9a4 4 0 0 1 4 4v43.8a38.7 38.7 0 0 0 35-38.3Z"/><path fill="#f2c351" d="M47 40.089a4.612 4.612 0 0 1-1.351 3.262l-.3.3A4.612 4.612 0 0 1 42.089 45H25.911a4.612 4.612 0 0 1-3.262-1.351l-.3-.3A4.612 4.612 0 0 1 21 40.089a4.615 4.615 0 0 1 .487-2.063l9.619-19.237A3.236 3.236 0 0 1 34 17a3.236 3.236 0 0 1 2.894 1.789l9.619 19.237A4.615 4.615 0 0 1 47 40.089Z"/><path fill="#f5cf74" d="M36.894 18.789a3.235 3.235 0 0 0-5.788 0l-9.619 19.237a4.613 4.613 0 0 0 .864 5.325l.3.3A4.612 4.612 0 0 0 25.911 45h2.318a38.938 38.938 0 0 0 14.6-14.342Z"/><path fill="#95aabd" d="M55 56H21v2a4 4 0 0 1-4 4h38a4 4 0 0 0 4-4v-2zM9 2a4 4 0 0 1 4 4v8H5V6a4 4 0 0 1 4-4z"/><path fill="#fff" d="M34 35a1 1 0 0 1-1-1v-9a1 1 0 0 1 2 0v9a1 1 0 0 1-1 1zm0 5a1 1 0 0 1-1-1v-1a1 1 0 0 1 2 0v1a1 1 0 0 1-1 1z"/></g></svg>